@startuml db
entity students{
<<PK>>id number
name varchar2
} 

entity books{
<<PK>> id number
name varchar2
<<FK>>  books_id
borrow number
}  


entity history{
<<PK>> id number
book_name varchar2
student_name varchar2
<<FK>>  student_id
<<FK>>  book_id
borrowed_date: DateTime
return_date: DateTime 

}  
students "1" -- "many" history
books "1" -- "many" history
@enduml